<svg width="67" height="28" viewBox="0 0 67 28" fill="none" xmlns="http://www.w3.org/2000/svg">
<path d="M1.8 27.32C1.16 27.32 0.84 27.0933 0.84 26.64C0.84 25.9733 1.45333 25.48 2.68 25.16C2.73333 25.1333 2.89333 25.0933 3.16 25.04C3.45333 25.0133 3.86667 24.9467 4.4 24.84C6.8 24.4133 8.58667 23.8533 9.76 23.16C11.7067 21.96 12.68 20.84 12.68 19.8C12.68 18.7867 11.6667 17.8 9.64 16.84C9 16.5467 8.21333 16.1867 7.28 15.76C6.34667 15.3333 5.25333 14.8267 4 14.24C1.97333 13.2533 0.96 12.0933 0.96 10.76C0.96 8.97333 2.8 7.10667 6.48 5.16C9.86667 3.34667 12.5467 2.44 14.52 2.44C16.2267 2.44 17.08 2.92 17.08 3.88C17.08 5.66667 16.6667 7.30667 15.84 8.8C15.3867 9.65333 15.0133 10.08 14.72 10.08C14.6133 10.08 14.56 9.97333 14.56 9.76C14.56 9.25333 14.6933 8.56 14.96 7.68C15.2533 6.72 15.4 6.01333 15.4 5.56C15.4 4.33333 14.64 3.72 13.12 3.72C11.4933 3.72 9.30667 4.38667 6.56 5.72C3.54667 7.21333 2.04 8.68 2.04 10.12C2.04 10.8133 2.30667 11.4667 2.84 12.08C3.37333 12.6933 4.17333 13.2267 5.24 13.68L11.16 16.08C13.2933 16.96 14.36 17.92 14.36 18.96C14.36 20.6133 12.68 22.3467 9.32 24.16C8.89333 24.3733 8.06667 24.7467 6.84 25.28C5.64 25.8133 4.01333 26.4933 1.96 27.32H1.8ZM23.0416 27.96C22.0282 27.96 21.5216 26.6133 21.5216 23.92C21.5216 22.9867 21.6016 21.6 21.7616 19.76C21.8682 18.8267 21.9349 18.0133 21.9616 17.32C22.0149 16.6 22.0416 16.0133 22.0416 15.56C21.6949 15.7467 21.4149 15.84 21.2016 15.84C21.0949 15.84 21.0416 15.7467 21.0416 15.56C21.0416 14.8667 21.5349 14.24 22.5216 13.68C23.0816 11.3067 23.3616 8.92 23.3616 6.52C23.3616 6.17333 23.3616 5.84 23.3616 5.52C23.3616 5.2 23.3482 4.88 23.3216 4.56C23.8282 3.65333 24.3216 3.2 24.8016 3.2C25.1482 3.2 25.3216 3.53333 25.3216 4.2C25.3216 4.70667 25.2549 5.36 25.1216 6.16C25.0149 6.93333 24.8282 7.82667 24.5616 8.84C24.0816 10.8667 23.8416 12.4 23.8416 13.44C24.0282 13.5733 24.2682 13.64 24.5616 13.64C25.9216 13.64 27.9749 12.7067 30.7216 10.84C33.6282 8.89333 35.0816 7.29333 35.0816 6.04C35.0816 4.04 32.1216 3.04 26.2016 3.04C24.8149 3.04 23.4282 3.08 22.0416 3.16C20.6816 3.24 19.2949 3.37333 17.8816 3.56C18.3349 2.2 18.9749 1.52 19.8016 1.52H21.5216C21.6549 1.52 21.8016 1.52 21.9616 1.52C22.1482 1.52 22.3482 1.50667 22.5616 1.48H23.2816C32.0016 1.48 36.3616 2.77333 36.3616 5.36C36.3616 7.68 33.6016 10.2267 28.0816 13C28.7482 13.1067 29.5749 13.2667 30.5616 13.48C31.5749 13.6667 32.7349 13.9067 34.0416 14.2C36.9216 14.92 38.3616 15.9333 38.3616 17.24C38.3616 18.4667 36.6816 20.2267 33.3216 22.52C31.9616 23.4267 30.6949 24.2133 29.5216 24.88C28.3749 25.5467 27.3082 26.0667 26.3216 26.44C26.2149 26.4667 26.1216 26.48 26.0416 26.48C25.9882 26.5067 25.9349 26.52 25.8816 26.52C25.5882 26.52 25.4416 26.3733 25.4416 26.08C25.4416 25.7333 25.8016 25.3867 26.5216 25.04L28.0416 24.44C33.2682 22.2533 35.8816 20.2133 35.8816 18.32C35.8816 17.0133 34.6549 16 32.2016 15.28C30.4949 14.7733 28.7349 14.52 26.9216 14.52C25.3749 14.52 24.2682 14.6933 23.6016 15.04C23.2016 16.6667 23.0016 18.72 23.0016 21.2C23.0016 24.48 23.4682 26.3067 24.4016 26.68C23.9482 27.5333 23.4949 27.96 23.0416 27.96ZM46.3928 26.48C44.3928 26.48 43.3928 24.08 43.3928 19.28C43.3928 14.24 44.1261 8.74667 45.5928 2.8C45.4061 2.72 45.1261 2.68 44.7528 2.68C42.6461 2.68 40.8861 3.2 39.4728 4.24C39.2595 4.37333 39.0728 4.44 38.9128 4.44C38.2461 4.44 37.9128 4.17333 37.9128 3.64C37.9128 3 38.6995 2.41333 40.2728 1.88C41.2595 1.53333 42.3128 1.29333 43.4328 1.16C43.8328 1.32 44.0328 1.48 44.0328 1.64C44.0328 1.69333 44.0061 1.74667 43.9528 1.8C44.2195 1.74667 44.5528 1.70667 44.9528 1.68C45.3795 1.65333 45.8861 1.62667 46.4728 1.6C46.9528 1.04 47.5128 0.759999 48.1528 0.759999C48.4195 0.759999 48.5528 0.866666 48.5528 1.08C48.5528 1.18667 48.5128 1.32 48.4328 1.48C51.7395 1.56 55.2861 2.36 59.0728 3.88C63.8461 5.77333 66.2328 8.02667 66.2328 10.64C66.2328 13.2 64.7795 15.84 61.8728 18.56C59.4461 20.8267 56.8195 22.5333 53.9928 23.68C52.6328 24.2667 50.8461 24.72 48.6328 25.04C48.3928 25.0667 48.0328 25.3067 47.5528 25.76C47.1261 26.24 46.7395 26.48 46.3928 26.48ZM46.9928 25.28C47.1795 25.28 47.4061 25.0267 47.6728 24.52C47.9661 24.04 48.2195 23.8 48.4328 23.8C48.6995 23.8 48.9395 24.0667 49.1528 24.6C51.0728 24.04 52.8461 23.3867 54.4728 22.64C56.1261 21.8933 57.6195 21.0533 58.9528 20.12C62.6328 17.5867 64.4728 14.76 64.4728 11.64C64.4728 9.08 62.2328 6.88 57.7528 5.04C54.0461 3.52 50.6728 2.76 47.6328 2.76C47.2595 3.61333 46.8995 4.73333 46.5528 6.12C46.2328 7.48 45.9261 9.10667 45.6328 11C45.3661 12.7067 45.1661 14.2667 45.0328 15.68C44.8995 17.0933 44.8328 18.3467 44.8328 19.44C44.8328 23.3333 45.5528 25.28 46.9928 25.28Z" fill="black"/>
</svg>
